<?xml version="1.0" encoding="UTF-8"?><svg id="Layer_1" xmlns="http://www.w3.org/2000/svg" viewBox="0 0 506.21 338.21"><defs><style>.cls-1,.cls-2{fill:#e62545;}.cls-3{letter-spacing:-.06em;}.cls-2{font-family:GillSans, 'Gill Sans';font-size:55.52px;}.cls-4{letter-spacing:0em;}</style></defs><text class="cls-2" transform="translate(158.8 325.39)"><tspan x="0" y="0">BIST</tspan><tspan class="cls-3" x="104.1" y="0">R</tspan><tspan class="cls-4" x="134.3" y="0">O</tspan></text><g><path class="cls-1" d="M66.42,188.5c-5.83,13.74-20.73,18.65-36.47,11.97-11.5-4.62-18.58-11.57-22.18-17.88L0,163.41l5.48-12.92h1.55c3.58,8.05,10.48,14.66,19.03,18.29,7.13,3.02,13.98,2.9,17.88-.03-6.79-7.79-15.85-14.35-18.45-23.91l-3.82-14.02c-1.81-6.71-2.17-11.19,.38-17.21,5.72-13.46,20.39-18.15,36.07-11.49,8.02,3.21,15.18,8.77,19.38,15.01l7.81,19.27-5.2,12.26-1.46,.09c-4.27-7.17-11.12-13.76-17.7-16.55-7.62-3.23-14.63-2.59-18.1,1.62,6.8,6.24,14.41,12.7,17.52,20.62l6.49,16.26c2.43,6.01,2.27,11.43-.45,17.83Zm-8.06-18.99c10.43-24.57-31.86-35.93-25-52.08,2.9-6.84,11.72-8.72,21.49-4.57,6.42,2.72,12.38,8.03,16.73,14.85l4.25-10.02c-4.05-5.86-10.78-11.04-18.37-14.06-14.8-6.28-28.54-1.97-33.89,10.61-10.39,24.47,31.37,35.86,24.61,51.79-2.9,6.84-12.64,8.59-22.78,4.28-8.28-3.51-15.19-9.81-19.11-17.48l-4.46,10.51c3.55,5.97,10.22,12.35,21.17,16.74,15.52,6.59,29.9,2.29,35.36-10.57Z"/><path class="cls-1" d="M99.71,209.54l-9.29-14.24c-6.35-9.73-9.16-21.74-6.57-34.02,5.01-23.67,28.08-38.9,51.4-33.97,12.3,2.6,21.58,10.27,26.86,18.44l9.31,14.42c7.8,12.1,10.21,23.42,7.58,35.87-4.99,23.61-27.77,38.85-50.8,33.98-11.78-2.49-21.13-9.21-28.49-20.48Zm67.15-30.7c4.84-22.86-9.68-45.19-31.95-49.89-22.44-4.74-44.6,9.89-49.43,32.69-4.85,22.91,9.54,45.28,31.93,50.01,22.44,4.75,44.62-9.95,49.45-32.8Zm-70.77-14.96c3.69-17.45,19.98-28.52,36.71-24.99,16.79,3.55,27.15,20.2,23.45,37.7-3.7,17.51-20.01,28.64-36.74,25.1-17.08-3.61-27.08-20.55-23.43-37.82Zm58.53,12.37c1.08-5.12,.87-10.15-.35-14.78-2.96-3-6.75-4.95-11.53-5.96-15.8-3.34-31.24,7.19-34.73,23.7-1.38,6.51-1.05,11.57,1.1,16.09,3.12,2.24,6.72,3.91,10.75,4.76,15.8,3.34,31.25-7.24,34.76-23.82Z"/><path class="cls-1" d="M213.52,226.56l-11.87-12.05c-8.27-8.04-13.3-19.56-13.18-32.57,.22-25.15,19.08-43.83,44.22-43.62,7.98,.07,17.73,2.06,24.13,6.15l14.59,14.81-.11,13.2-1.44,.58c-4.49-4.32-13.45-8.56-22.8-8.64-18.7-.16-31.5,12.04-31.65,29.99-.05,6.36,1.15,11.36,3.86,15.37,4.33,2,9.38,3.11,14.93,3.16,7.8,.07,14.97-1.89,21.73-6.06l14.95,14.57-.11,13.26c-5.93,3.7-15.48,5.81-24.83,5.73-14.18-.12-23.96-5.67-32.41-13.89Zm41.34-6.66l.09-10.52c-6.28,3.45-13.45,5.3-20.78,5.23-19.89-.17-33.66-13.73-33.5-32.87,.16-18.85,13.74-31.81,33.33-31.64,8.04,.07,16,2.4,21.39,6.25l.09-10.7c-5.45-3.44-14.25-5.59-22.83-5.67-24.18-.21-42.33,17.77-42.53,41.97-.21,24.19,17.81,42.72,41.57,42.92,7.21,.06,17.11-1.34,23.16-4.97Z"/><path class="cls-1" d="M286.74,222l-10.09-83.81,13.37-1.61,16.5,12.92,10.09,83.82-13.37,1.61-16.5-12.92Zm12.04-2.65l-9.75-80.98-10.53,1.27,9.75,80.98,10.53-1.27Z"/><path class="cls-1" d="M326.84,218.59l12.69-90.29,14.36-3.74,23.75,8.93,55.41,73-15.17,3.95-22.9-9.21-3.32-4.48-33.1,8.61-2.72,21.23-11.82,3.08-17.17-11.07Zm12.85-4.33l2.78-21.24,40.65-10.58,12.73,17.21,11.07-2.88-53.37-70.39-12.57,3.27-12.25,87.47,10.96-2.85Zm9.78-74.73l1.5-.39,26.53,34.93-34.2,8.9,6.17-43.44Zm25.18,33.56l-11.55-15.24-2.76,18.96,14.3-3.72Z"/><path class="cls-1" d="M437.03,187.32l-34.14-77.2,12.26-5.42,19.55,7.53,23.01,52.02,23.8-10.53,19.55,7.53,5.15,11.63-49.63,21.96-19.55-7.53Zm48.06-22.56l-3.99-9.02-37.37,16.53-29-65.56-9.64,4.27,32.99,74.59,47.01-20.8Z"/></g><g><path class="cls-1" d="M95.25,75.15V0h26.73c9.33,0,16.81,3.33,20.84,7.36l10.55,10.48c5.14,5.08,7.58,10.85,7.58,17.99,0,14.82-11.35,25.61-27.1,25.61h-13.47v26.88h-11.93l-13.21-13.18Zm10.87-1.06v-25.83h14.96c16.18,0,27.21-9.84,27.21-24.13S136.99,1.48,121.98,1.48h-25.25V74.09h9.39Zm0-64.25h15.54c10.29,0,17.08,5.87,17.08,14.82s-7.11,15.19-17.08,15.19h-15.54V9.84Zm15.54,28.52c9.18,0,15.59-5.66,15.59-13.71,0-.48,0-.95-.05-1.43-.9-.16-1.86-.21-2.76-.21h-14.58v15.35h1.8Z"/><path class="cls-1" d="M168.48,75.15V0h49.48l13.21,13.18v9.9h-38.19v8.1h18.94l13.21,13.18v10.11h-32.14v9.63h26.52l13.21,13.18v11.06h-51.02l-13.21-13.18Zm49.96-1.06v-8.52h-39.2v-24.29h31.61v-8.63h-31.61V9.9h37.66V1.48h-46.94V74.09h48.48Z"/><path class="cls-1" d="M255.57,75.15V24.03h-9.71l-13.21-12.75V0h57.71l13.21,13.18v10.85h-22.86V88.33h-11.93l-13.21-13.18Zm10.87-1.06V10.32h22.86V1.48h-55.16V10.32h22.91v63.77h9.39Z"/><path class="cls-1" d="M309.92,75.15V0h11.99l13.21,13.18V88.33h-11.99l-13.21-13.18Zm10.93-1.06V1.48h-9.44V74.09h9.44Z"/><path class="cls-1" d="M361.79,75.15V24.03h-9.71l-13.21-12.75V0h57.71l13.21,13.18v10.85h-22.86V88.33h-11.93l-13.21-13.18Zm10.87-1.06V10.32h22.86V1.48h-55.16V10.32h22.91v63.77h9.39Z"/></g></svg>